<svg id="Layer_1" data-name="Layer 1" xmlns="http://www.w3.org/2000/svg" viewBox="0 0 826.34 600.74">
  <defs>
    <style>
      .cls-1  { fill: #7d5a30; animation: fur-mid   3s ease-in-out infinite; }
      .cls-2  { fill: #1a0c05; }
      .cls-3  { fill: #f5f2eb; }
      .cls-4  { stroke-miterlimit: 10; }
      .cls-4, .cls-5, .cls-6 { fill: none; stroke-width: 9px; animation: wolf-stroke 2.8s ease-in-out infinite; }
      .cls-5  { stroke-linejoin: round; }
      .cls-6  { stroke-linejoin: bevel; }
      .cls-7  { fill: #a07848; animation: fur-light  3s ease-in-out infinite 0.6s; }
      .cls-8  { fill: #1f0e04; }
      .cls-9  { fill: #3c2814; animation: fur-dark   3s ease-in-out infinite 1.2s; }
      .cls-10 { fill: #c9a070; animation: fur-pale   3s ease-in-out infinite 0.3s; }

      @keyframes wolf-stroke {
        0%, 100% { stroke: #2a1208; }
        50%       { stroke: #c44010; }
      }
      @keyframes fur-mid {
        0%, 100% { fill: #7d5a30; }
        50%       { fill: #a07840; }
      }
      @keyframes fur-light {
        0%, 100% { fill: #a07848; }
        50%       { fill: #c8a060; }
      }
      @keyframes fur-dark {
        0%, 100% { fill: #3c2814; }
        50%       { fill: #60402a; }
      }
      @keyframes fur-pale {
        0%, 100% { fill: #c9a070; }
        50%       { fill: #e8c898; }
      }
    </style>
  </defs>
  <g>
    <path class="cls-9" d="M38.98,580.48l-1.02,2.89.89-1.07c.29-.35.59-.67.9-.96l.24-.22-1.01-.64Z"/>
    <path class="cls-3" d="M40.94,580.01c-.09-.07-.18-.15-.26-.23l-.11-.11-.37.13c-.23.08-.46.16-.69.24l-.5.17.79.51.49.15c.23-.19.43-.33.62-.44l.32-.18-.29-.23Z"/>
    <path class="cls-3" d="M38.32,580.44c-.54.17-1.08.33-1.67.49l-.33.09,1.4,2.28,1.08-3.01-.48.16Z"/>
    <path class="cls-3" d="M35.67,581.17c-.66.15-1.11.25-1.51.31l-.34.05,1.26,2.51,1.03-2.97-.44.1Z"/>
    <path class="cls-3" d="M33.14,581.59c-.15,0-.31.02-.46.02-.54,0-.97-.07-1.29-.2l-.53-.22,1.4,3.8,1.27-3.43-.38.03Z"/>
    <path class="cls-3" d="M30.13,581.39c-.46.18-1.07.23-1.83.15l-.47-.05,1.66,3.08,1.13-3.38-.5.19Z"/>
    <path class="cls-3" d="M30.87,586.83l-.85,3.37-.19.28.33.1c.59.18,1.24.25,1.8.29l.39.03-1.47-4.07Z"/>
    <path class="cls-3" d="M33.81,587.58l-1.22,3.35.37-.02c1.05-.05,1.45-.58,1.86-1.61l.05-.12-1.07-1.6Z"/>
    <path class="cls-3" d="M28.27,587.58l-.47,1.01.07.11c.34.57.72,1,1.15,1.32l.89.66-1.64-3.1Z"/>
    <path class="cls-3" d="M21.26,579.34l-.11.07c-.15.1-.31.18-.47.27l-.32.18.29.23c.11.09.24.2.39.33l.37.31,1.17-.84-1.32-.55Z"/>
    <path class="cls-9" d="M22.64,580.15l-1.03.74.23.21c.27.24.55.5.85.78l.71.68-.76-2.42Z"/>
    <path class="cls-3" d="M24.93,580.76c-.51-.17-1.03-.36-1.6-.58l-.48-.19.79,2.51,1.69-1.61-.39-.13Z"/>
    <path class="cls-3" d="M27.36,581.41c-.38-.07-.8-.17-1.33-.32l-.46-.12.82,2.34,1.36-1.83-.39-.07Z"/>
    <path class="cls-9" d="M36.26,581.39l-1.15,3.28-1.42-2.85-1.44,3.87-1.51-4.08-1.2,3.6-1.78-3.32-1.44,1.95-.93-2.66-1.72,1.65.18.18c1.79,1.78,3,3.36,3.48,4.59.03.07.06.14.09.22l.21.55.63-1.34,1.57,2.95,1.01-3.99,1.64,4.54,1.28-3.5,1.22,1.86.5-1.31c.37-.95,1.19-2.37,2.14-3.7l.1-.14-1.45-2.36Z"/>
    <path class="cls-8" d="M33.83,577.36c-2.54-1.36-4.79-.46-5.63-.01l-.26.14.18.23c.88,1.12,2.12,1.98,2.61,2.3l.1.07.12-.04c1.54-.54,2.52-1.69,2.97-2.32l.16-.23-.25-.13Z"/>
    <path class="cls-7" d="M47.56,579.31c-.76.49-1.97.95-3.46.33l-.23-.1.24-.14c.44-.27,2.63-1.74,2.6-4.07v-.58s-.42.41-.42.41c-.42.41-1.17.91-2.38.98h-.19c-.5-.78-3.4-5.2-6.29-5.2-.11,0-.23,0-.34.02-1.71.21-3.11,2.06-4.14,5.49l-.07.23.22.08c.42.15.82.35,1.22.6l.1.06-.06.11c-.2.33-1.28,2-3.25,2.73l-.11.04-.04.11s-.02.06-.02.1l-.03.08.03.08c.03.08.08.2.19.31.51.49,2.36.96,8.96-1.39l.32-.11-.2-.27c-.09-.12-.18-.25-.25-.38l.23-.1c.53.98,1.48,1.57,1.94,1.81l-.09.23c-.11-.06-.26-.14-.43-.25l-.1-.06-.11.04c-1.26.43-3.05,2.84-3.67,3.72l-.08.11c-.88,1.27-1.58,2.51-1.93,3.38-.09.23-.17.44-.25.65l-.11.28c-.58,1.59-.93,2.56-2.55,2.56-.12,0-.23,0-.35,0h-.16c-2.1-.17-3.92-.31-5.18-3.47-1.09-2.72-5.53-6.51-6.86-7.61l-.12-.1-.14.06c-.32.14-.59.24-.77.3l-.07-.24c.64-.23,2.01-.8,2.98-1.77l.18.17c-.14.14-.3.28-.47.42l-.33.26.39.16c5.92,2.5,7.83,2.11,8.45,1.66.15-.11.26-.25.31-.4v-.32s-.1-.07-.1-.07c-.71-.47-2.03-1.44-2.87-2.68l-.06-.1.11-.08c.06-.05.51-.33,1.19-.58l.19-.07-.02-.2c-.48-3.8-1.48-5.91-2.97-6.28-.14-.04-.3-.06-.5-.06-1.85,0-4.05,2.4-5.06,3.8l-.26-.11c-.06-.02-1.4-.61-2.16-2.38l-.25-.58-.22.59c-.12.32-.28.84-.37,1.47-.26,1.78.2,3.28,1.38,4.48l.17.17-.2.03s-.05,0-.1,0c-.14.02-.46.05-.88.05-1.05,0-1.93-.21-2.6-.61l-.4-.24.02.47c.08,1.74.61,4.73,3.2,5.28l.2.04-.13.15s-.86.99-1.11,2.52l-.06.38.37-.09c.6-.15,1.8-.41,3.13-.41.82,0,1.54.09,2.2.27,2.09.56,2.96,2.32,3.66,3.76.22.46.44.89.67,1.25,1.03,1.54,3.55,2.14,5.81,2.14.84,0,1.65-.08,2.32-.23.83-.18,1.2-1.13,1.63-2.23.8-2.05,1.79-4.6,6.36-3.5l.29.07v-.3c.05-.75-.08-1.36-.36-1.82l-.1-.15.27-.04h0c.85-.2,1.68-.55,2.38-1.02,1.38-.91,2.24-2.18,2.53-3.79l.1-.57-.49.32ZM40.69,575.98l-4.89,2.1-.04-.13c-.34-1.13-.31-1.93-.28-2.23v-.04s2.64-2.78,2.64-2.78l.09.06c.88.61,2.05,2.36,2.4,2.9l.08.12ZM21.5,575.98l.09-.13c.12-.21,1.45-2.23,2.39-2.89l.08-.06,2.64,2.78v.05c.04.29.07,1.1-.27,2.22l-.04.14-4.89-2.1Z"/>
    <path class="cls-1" d="M43.6,574.7c-.92-6.53-2.5-12.1-2.97-13.66l-.13-.45-.3.37c-1.63,2.01-4.57,6.8-4.6,6.85l-.04.07h-.07c-3.25-.26-7.02-.23-7.08-.21h-.07l-.04-.06c-1.86-2.99-4.34-5.69-5.06-6.45l-.3-.31-.12.42c-.98,3.33-1.88,9.15-2.23,11.49l-.13.87.57-.67c1.1-1.31,3.24-3.44,5.12-2.98,1.61.4,2.64,2.49,3.15,6.38l.04.27.27-.06c.94-.22,1.88-.23,2.79-.01l.23.05.07-.23c1.07-3.53,2.53-5.44,4.34-5.66,2.43-.31,4.87,2.48,6.11,4.17l.59.81-.14-.99ZM37.45,567.9c.73-1.46,1.52-2.62,2.21-3.28l.13-.12.09.19c.27.63.93,2.34,1.11,4.45l.03.35-.24-.25h0c-.14-.14-1.22-1.14-3.23-1.12h-.2s.11-.23.11-.23ZM26.17,567.47l-.25-.07c-1.33-.34-2.5.81-2.99,1.38l-.32.42.06-.46c.15-1.17.7-3.56.93-4.54l.07-.28.16.15c1.37,1.29,2.22,3.13,2.24,3.15l.11.24Z"/>
    <path class="cls-3" d="M26.47,575.78l-2.44-2.57-.18.16c-.65.58-1.42,1.66-1.82,2.25l-.17.25,4.37,1.88.07-.28c.14-.56.2-1.09.18-1.58v-.09Z"/>
    <path class="cls-3" d="M40.16,575.62c-.4-.59-1.17-1.67-1.82-2.25l-.18-.16-2.44,2.57v.09c-.03.5.03,1.03.17,1.58l.07.28,4.37-1.88-.17-.25Z"/>
    <path class="cls-9" d="M25.51,566.73c-.23-.42-.71-1.23-1.38-1.98l-.32-.36-.11.47c-.11.48-.39,1.7-.59,2.77l-.13.67.53-.43c.41-.33,1.05-.74,1.79-.77l.4-.02-.19-.35Z"/>
    <path class="cls-9" d="M40.64,568.31c-.21-1.38-.59-2.48-.79-3.01l-.15-.39-.27.32c-.61.72-1.16,1.65-1.51,2.31l-.18.34.38.03c.77.06,1.5.28,2.16.66l.45.26-.08-.51Z"/>
    <path class="cls-10" d="M14.31,587.61l-13.78-16.43-.02.65c-.03.83.04,2.19.57,3.99.79,2.74,2.82,7.11,7.98,12.33l.15.15,1.9-1.33,2.23,2.75.2-.17c.08-.08.15-.13.2-.17l.1-.07-.02-.24c-.02-.11-.03-.22-.03-.35,0-.37.13-.69.38-.95l.16-.16ZM13.57,589.12h0s0,0,0,0Z"/>
    <path class="cls-1" d="M14.24,591.26c-.09-.45-.18-.9-.25-1.3l-.08-.42-.33.27c-.07.06-1.73,1.45-1.73,2.05v.1l.06.07c.14.15.43.21.77.21.61,0,1.34-.17,1.46-.2l.23-.06-.14-.73Z"/>
    <path class="cls-1" d="M16.65,591.56l1.13-.51-.14-.24c-.18-.31-.31-.63-.38-.95l-.04-.19h-.68l.05.29c.06.32.09.6.1.89,0,.09,0,.19,0,.29l-.04.42Z"/>
    <path class="cls-1" d="M18.65,591.89c-.2-.13-.4-.29-.6-.51l-.12-.13-1.31.61-.03.12c-.22.91-.78,1.58-1.66,1.98l-.14.07-.02-.11s0-.06-.23-1.15l-.07-.34-.3.17c-.1.06-2.46,1.4-2.15,2.18.06.12.23.22.49.28.13.03.28.04.44.04,1.36,0,3.82-.88,5.76-2.82l.22-.22-.26-.17Z"/>
    <path class="cls-1" d="M19.45,593.39c-.49-.08-1.21-.11-1.94.21-1.01.71-2.14,1.25-3.19,1.52l-.07.02-.05.05c-.13.13-1.24,1.3-.8,1.98l.05.08.09.02s.09.02.14.02c.54,0,1.77-.53,3.11-1.34,1.21-.73,2.26-1.54,2.8-2.15l.3-.34-.45-.07Z"/>
    <path class="cls-10" d="M20.94,595.51l-.14.07h-.09l-.07.11c-.29.41-.65.83-.99,1.16-.03.02-.06.05-.11.1l-.2.16,1.28,1.59.17-.06c.36-.13,1.22-.51,1.48-1.37l.04-.13-1.35-1.63ZM19.74,597.1h0s0,0,0,0Z"/>
    <path class="cls-1" d="M20.6,594.42c-.52.09-1.31.28-2.16.73-.8.6-1.78,1.2-2.68,1.67l-.07.04-.04.07c-.12.23-.49,1.01-.24,1.39.08.1.24.21.57.21.11,0,.24-.01.4-.04,1.86-.31,3.97-2.43,4.49-3.71l.17-.41-.44.07Z"/>
    <path class="cls-1" d="M18.19,587.42c-1.9-.29-3.27-.1-3.85.52-.28.28-.38.65-.29,1.08.14.68.4,2,.6,3.08l.31,1.58.31-.22c1.72-1.18,1.13-3.5.83-4.35l.23-.1c.02.07.05.15.08.24l.06.19.96-.05v.12c.02.09.3,2.14,2.29,2.52l-.03.24c-.13-.02-.25-.05-.39-.09l-.14-.04-.95.95h.6c.66,0,1.17.14,1.2.15l.2.07-.06.12c-.05.11-.14.24-.29.42l-.47.57.72-.17c.6-.14.99-.14,1-.14h.14s0,.11,0,.11c-.02.2-.06.37-.12.52l-.28.7.64-.4c.6-.37.9-1,.9-1.88,0-2.23-2.04-5.42-4.2-5.76Z"/>
    <path class="cls-1" d="M48.05,591.66c-.04-.09-.07-.18-.11-.3-.09-.28-.15-.58-.2-.85l-.05-.29-.64.22.03.2c.04.3.02.66-.04,1.01l-.05.27,1.21.11-.15-.38Z"/>
    <path class="cls-10" d="M47.27,598.07s-.07-.03-.09-.03c-.46-.22-.94-.5-1.34-.79l-.4-.29v.43s-.78,2.08-.78,2.08l.06.1c.12.22.48.66,1.31.66.17,0,.36-.02.57-.06l.14-.03.72-1.98-.2-.1Z"/>
    <path class="cls-1" d="M51.13,597.03l.2-.27-.42-.05c-1.02-.12-2.18-.37-3.22-.69-.7-.11-1.46-.1-2.24.03l-.44.07.29.34c.81.93,3.05,2.07,4.86,2.07.21,0,.42-.02.62-.05.53-.1.83-.27.89-.49h0c.07-.33-.3-.74-.54-.96Z"/>
    <path class="cls-1" d="M51.74,594.66l-.06-.03h-.07c-1.08.1-2.34-.03-3.57-.38-.59-.03-1.21.13-1.86.46l-.41.21.4.23c.7.4,1.96.81,3.36,1.11,1.01.21,1.92.32,2.58.32.46,0,.79-.05.94-.16l.07-.05.02-.09c.18-.75-1.14-1.46-1.41-1.6Z"/>
    <path class="cls-1" d="M50.9,592.18l-.35-.06.05.35c.09.6.16,1.05.17,1.12l.02.15-.15-.02c-.96-.09-1.71-.53-2.22-1.32l-.07-.1-1.45-.13-.07.16c-.11.26-.25.48-.4.68l-.19.25.28.13c1.54.73,3.12,1.02,4.42,1.02,1.04,0,1.89-.18,2.36-.46.16-.1.36-.26.36-.44,0-.8-2.65-1.3-2.76-1.33Z"/>
    <path class="cls-1" d="M52.84,590.75c-.19-.55-2.09-1.29-2.31-1.37l-.4-.15.36,2.47.24-.02c.08,0,1.89-.21,2.11-.74l.04-.09-.03-.09Z"/>
    <path class="cls-10" d="M55.81,577.85c-.05.1-.17.13-.27.09l-.68-.3c-.1-.04-.15-.15-.12-.25l1.16-3.68-.46-.19-1.8,3.43c-.05.1-.17.14-.27.1l-.91-.39c-.1-.04-.15-.15-.11-.26l.92-2.9-.46-.2-2.57,4.7,1.63,1.3c.14.11.2.31.13.48l-2.9,7.77.2.1c.42.21.68.59.75,1.13v.19l.18.05s.1.03.17.06l.36.13,3.14-8.47c.06-.17.21-.27.38-.27,0,0,.01,0,.02,0l2.14.07,2.1-7.63-2.74,4.95Z"/>
    <path class="cls-1" d="M50.46,593.1c-.16-1.03-.5-3.34-.64-4.32-.06-.43-.27-.74-.62-.92-.76-.39-2.12-.11-3.81.79-1.93,1.03-2.79,4.71-2.05,6.82.29.82.78,1.32,1.47,1.47l.74.16-.5-.57c-.12-.14-.22-.29-.28-.43l-.05-.13.15-.04c.06-.02.44-.13.98-.19l.76-.09-.66-.38c-.17-.1-.3-.2-.4-.3l-.1-.1.14-.1c.13-.09.54-.37,1.11-.56l.6-.21-.58-.26c-.18-.08-.35-.17-.53-.25l-.14-.07-.12.1c-.09.07-.2.14-.33.21l-.1-.22c1.5-.87,1.46-2.54,1.3-3.14l-.03-.11.92-.28v-.19c0-.09,0-.18,0-.25l.24.02c.01.98.25,3.28,2.24,3.81l.37.1-.06-.38ZM45.4,594.59h0s0,0,0,0h0Z"/>
  </g>
  <path class="cls-4" d="M289.57,209.09c-2.47-1.51-4.8-3.31-6.87-5.47,0,0-4.14,65.29,39.74,74.64,0,0-13.21,15.03-14.34,37.87,0,0,37-12.38,69.8-3.55s39.87,42.6,51.38,59.8c17.35,25.95,68.63,30.54,99.61,23.72,30.98-6.82,11.49-92.75,100.59-67.98,0,0,3.41-16.26-4.07-28.26,0,0,59.79-9.48,62.93-70.65,0,0-19.78,22.59-48.48,10.52,0,0,40.4-23.29,30.91-61.42,0,0-9.14,17.83-33.91,19.09-12.74-103.02-40.36-188.84-40.36-188.84-18.2,19.1-61.02,89.07-61.02,89.07-41.03-3.19-85.56-2.49-85.56-2.49-27.75-44.9-66.57-83.61-66.57-83.61-16.13,49.16-30.96,158.36-30.96,158.36,0,0-21.47-9.12-28.87-38.61,0,0-27.42,48.4,7.69,84.29,0,0-24.46,3.96-41.64-6.51Z"/>
  <path class="cls-4" d="M352.39,173.84s88.72-129.09,107.54,33.39"/>
  <path class="cls-4" d="M636.79,199.82s-88.91-149.67-134.26,4.62"/>
  <path class="cls-4" d="M424.52,220.31l-55.87-24s16.77-26.32,28.65-34.58l30.58,32.26s1.55,10.32-3.35,26.32Z"/>
  <path class="cls-4" d="M540.12,220.31l55.87-24s-16.77-26.32-28.65-34.58l-30.58,32.26s-1.55,10.32,3.35,26.32Z"/>
  <path class="cls-4" d="M420.25,92.13s-10.46-22.42-26.71-37.64c0,0-9.2,38.46-11.44,55.49,0,0,17.38-23.32,38.15-17.85Z"/>
  <path class="cls-4" d="M560.06,100.81s12.57-26.44,26.63-39.86c0,0,10.85,23.32,13.55,53.68,0,0-13.78-14.22-40.18-13.82Z"/>
  <path class="cls-4" d="M478.95,248.16s-23.48-13.83-36.68-33.38c0,0,36.87-25.27,78.09,0,0,0-13.81,24.62-41.42,33.38Z"/>
  <path class="cls-5" d="M361.68,235.02c124.08,54.39,117.27,13.14,117.27,13.14,0,0-14.11,39.95,120.15-9.06"/>
  <path class="cls-5" d="M350.99,244.26s69.2,55.08,84.49,93.34c15.29,38.25,37.36,39.06,63.23,40.98s26.9-13.2,37.84-40.98c10.94-27.78,50.88-83.79,71.32-88.32"/>
  <path class="cls-5" d="M335.53,249.08s25.99-7.52,41.62-24.96"/>
  <path class="cls-5" d="M617.41,254.46s-20.2-8.54-28.2-26.59"/>
  <path class="cls-4" d="M365.95,255.92l14.87-10.83c.12-.09.29-.03.34.11l9.97,31.62c.25.81,1.27,1.06,1.87.48l20.83-20.02c.12-.11.31-.07.36.09l10.96,31.39,16.92-22.92c.1-.13.29-.12.37.03l20.85,38.84,14.7-44.3,18.39,49.55,16.92-45.65c.07-.18.32-.19.4-.02l16.93,33.81,13.59-38.79c.06-.17.3-.2.39-.04l18.05,29.51,14.05-39.41c.05-.13.21-.19.33-.11l12.17,7.81"/>
  <path class="cls-4" d="M441.15,348.78l7.03-15.1,18.29,34.46c.35.67,1.35.55,1.53-.18l11.42-45.12,18.76,52.06c.26.73,1.29.73,1.55,0l15.02-41.22,14.35,21.74"/>
  <g>
    <path class="cls-4" d="M301.79,352.18s18.93,44.49-15.29,60.34c0,0-8.2-42.43-11.33-57.85s12.05-27.07,51.69-20.99,77.51,91.27,29.25,98.76"/>
    <path class="cls-4" d="M305.83,360.98l10.29-.46s3.35,29.06,31.74,32.2"/>
    <path class="cls-4" d="M280.18,394.53s-34.17,18.3-29.67,29.67c4.5,11.37,51.78,3.78,85.63-32.01"/>
    <path class="cls-4" d="M274.46,359.22s-30.62,24-25.18,31.93c5.44,7.94,33.25,0,33.25,0"/>
    <line class="cls-4" x1="305.15" y1="387.98" x2="323.42" y2="379.63"/>
    <path class="cls-4" d="M278.3,426.98s-17.86,17.33-10.34,27.14c7.51,9.8,72.67-29.47,80.99-46.99,0,0-16.39-5.33-31.19,1.09"/>
    <path class="cls-4" d="M295.78,447.03s-16.54,27.24,9.26,22.96c25.79-4.27,55.99-36.73,57.02-52.63,0,0-15.78.4-32.92,9.54"/>
  </g>
  <path class="cls-4" d="M338.46,452.07l16.83,20.75s19.41-4.49,22.37-21.02l-19.93-23.76"/>
  <path class="cls-4" d="M281.34,336.95L112.76,135.94s-20.22,86.17,105.29,211.68l22.72-16,26.95,33.24"/>
  <g>
    <g>
      <path class="cls-4" d="M687.79,346.14s-3.06,48.25,34.49,51.82c0,0-6.38-42.74-8.56-58.33s-20.36-21.52-55.72-2.6-42.74,111.86,5.26,102.86"/>
      <path class="cls-4" d="M686.92,355.79l-9.85,2.99s6.5,28.52-19.23,40.92"/>
      <path class="cls-4" d="M722.26,378.9s38.31,5.89,37.84,18.11-47.58,20.79-91.4-1.7"/>
      <path class="cls-4" d="M715.91,343.7s36.86,12.45,34.37,21.74c-2.49,9.29-31.35,11.06-31.35,11.06"/>
      <line class="cls-4" x1="696.54" y1="381.03" x2="676.53" y2="379.22"/>
      <path class="cls-4" d="M734.83,408.87s22.6,10.41,18.78,22.15c-3.82,11.75-78.33-3.62-92.01-17.38,0,0,13.68-10.48,29.78-9.35"/>
      <path class="cls-4" d="M726.66,436.3s23.02,17.48-2.73,22.03c-25.74,4.55-65.02-16.02-71.28-30.67,0,0,15.01-4.87,34.22-1.95"/>
    </g>
    <path class="cls-6" d="M724.7,346.99l38.35-103.73c.53-1.42,1.9-2.35,3.42-2.31l24.08.73c1.63.05,3.08-1.02,3.51-2.59l28.34-102.97-39.07,70.98c-.27.49-.87.7-1.39.47l-8.18-3.58c-.51-.22-.77-.79-.6-1.32l29.18-92.69-45.16,86.33c-.26.5-.86.72-1.38.5l-10.92-4.6c-.53-.22-.79-.82-.6-1.37l25.04-79.36-52.29,95.94c-.88,1.51-.53,3.44.84,4.54l18.35,14.69c1.19.95,1.63,2.56,1.1,3.99l-35.57,95.4"/>
    <path class="cls-6" d="M660.07,437.86l-11.56,31.01s5.04,15.36,27.63,9.47l9.63-26.05"/>
  </g>
  <g>
    <path class="cls-2" d="M43.57,587.31l.08-.39c.01-.05.23-1.15-.16-2.16.5-.14,1.33-.42,2.17-.97,1.23-.8,2.73-2.35,2.87-5.12l.06-1.07-.71.81s-1.17,1.31-2.9.98c.3-.24.67-.57,1.02-.99,1.05-1.24,1.41-2.65,1.06-4.06l-.24-.95-.46.86s-.61,1.13-2.15,1.35c-1.07-8.32-3.29-15.29-3.31-15.36l-.19-.6-.43.45c-1.38,1.45-4.34,6.21-4.98,7.25-2.85-.21-5.87-.2-6.69-.19-2.29-3.64-5.43-6.79-5.46-6.82l-.43-.43-.19.58c-1.16,3.52-2.21,10.59-2.5,12.63-.52-.37-1.36-1.18-1.74-2.69l-.23-.9-.46.81s-.6,1.08-.82,2.51c-.24,1.65.11,3.14,1.02,4.35-.67.01-1.7-.06-2.5-.54h0c-.19-.11-.35-.25-.49-.39l-.59-.61-.05.85c0,.06-.09,1.43.29,2.92.46,1.81,1.41,3.01,2.76,3.5-.36.55-.88,1.58-.95,2.91l-.03.55.52-.17s2.99-.98,5.57-.29c1.88.51,2.65,2.09,3.34,3.5.23.48.45.93.71,1.31,1.16,1.74,3.85,2.37,6.21,2.37.89,0,1.74-.09,2.43-.24,1.09-.24,1.53-1.36,1.99-2.55.83-2.13,1.69-4.34,6.17-3.09l.38.11ZM23.06,561.33c.95,1,3.27,3.57,5.03,6.41l.11.18h.21s3.71-.06,7.05.2l.23.02.12-.19c.03-.05,2.95-4.82,4.58-6.82.54,1.81,2.06,7.24,2.96,13.62-1.27-1.74-3.77-4.6-6.34-4.28-1.92.24-3.45,2.21-4.55,5.84-1.1-.26-2.11-.18-2.91.01-.52-4-1.62-6.16-3.34-6.59-2.01-.5-4.21,1.67-5.37,3.06.34-2.32,1.24-8.12,2.22-11.46ZM40.51,579.96c.09.09.18.17.27.25-.21.12-.42.27-.64.45l.02-.02-.56-.36c.3-.1.6-.21.91-.32ZM35.24,587.49c-.12.3-.23.59-.32.85l-1.23-1.87-1.21,3.32-1.68-4.67-1.05,4.15-1.5-2.82-.59,1.26c-.03-.08-.07-.16-.1-.24-.59-1.47-2.07-3.2-3.53-4.66l1.25-1.2.96,2.75,1.49-2.02,1.87,3.49,1.16-3.49,1.5,4.05,1.47-3.96,1.43,2.86,1.17-3.34,1.08,1.77c-.97,1.36-1.79,2.78-2.17,3.75ZM34.59,589.21c-.39.96-.72,1.41-1.64,1.45l.92-2.53.71,1.08ZM31.98,590.62c-.63-.05-1.21-.11-1.75-.28.02-.03.03-.06.04-.1l.65-2.56,1.06,2.94ZM29.18,589.82c-.39-.29-.76-.69-1.09-1.25l.2-.43.89,1.68ZM21.28,579.61c.27.12.53.23.79.33l-.65.47c-.25-.21-.46-.39-.62-.52.16-.09.32-.18.48-.28ZM22.51,580.56l.36,1.15c-.3-.28-.6-.55-.87-.78l.5-.37ZM23.24,580.42c.57.22,1.11.41,1.61.58l-1.1,1.06-.52-1.63ZM25.97,581.33c.48.13.93.24,1.35.32l-.84,1.14-.51-1.46ZM28.27,581.8c.81.08,1.46.02,1.94-.17l-.78,2.34-1.16-2.17ZM39.12,580.86l.46.3c-.3.29-.61.62-.92.98l.46-1.28ZM37.66,582.72l-.95-1.55c.53-.14,1.08-.31,1.68-.5l-.73,2.04ZM35.04,583.4l-.84-1.67c.47-.07.98-.17,1.53-.3l-.69,1.98ZM32.26,584.26l-.97-2.63c.36.14.82.22,1.39.22.15,0,.31,0,.48-.02l-.9,2.42ZM30.86,579.81c-.42-.27-1.67-1.12-2.54-2.24.81-.43,2.97-1.29,5.4.01-.39.55-1.35,1.69-2.86,2.23ZM42.97,586.38c-4.78-1.16-5.85,1.61-6.65,3.65-.4,1.04-.75,1.93-1.45,2.09-2.43.54-6.52.2-7.86-1.81-.22-.33-.43-.76-.66-1.22-.72-1.47-1.61-3.29-3.81-3.89-.75-.2-1.53-.28-2.26-.28-1.34,0-2.53.25-3.19.42.23-1.44,1.03-2.37,1.04-2.38l.42-.48-.62-.13c-2.5-.53-2.93-3.61-3-5.05,0,0,0,0,0,0,1.52.93,3.62.6,3.7.59l.71-.11-.5-.51c-1.12-1.14-1.56-2.58-1.31-4.27.08-.55.22-1.04.36-1.42.8,1.86,2.22,2.48,2.29,2.51l.45.19h0c.84-1.22,3.45-4.29,5.39-3.81,1.37.34,2.33,2.44,2.8,6.08-.75.27-1.21.58-1.26.61l-.31.21.21.31c.92,1.36,2.39,2.39,2.94,2.74,0,.04,0,.07,0,.11-.04.09-.1.19-.22.28-.47.35-2.19.85-8.2-1.69.24-.19.46-.4.67-.63l-.56-.5c-1.21,1.35-3.25,1.95-3.27,1.96l.1.36.1.36s.46-.14,1.04-.39c.73.59,5.67,4.68,6.8,7.51,1.33,3.32,3.31,3.46,5.42,3.62h.14c.13.02.25.02.37.02,1.79,0,2.2-1.1,2.79-2.72.11-.29.22-.6.35-.93.35-.89,1.07-2.13,1.9-3.33h0s0-.01,0-.01c1.22-1.75,2.68-3.4,3.61-3.71.38.24.66.36.69.37l.29-.69s-1.55-.67-2.14-2.01l-.68.3c.11.24.24.46.38.66-6.69,2.37-8.31,1.8-8.7,1.43-.07-.07-.11-.14-.13-.21,0-.03.01-.06.01-.09,2.23-.82,3.34-2.77,3.39-2.85l.18-.31-.31-.19c-.43-.26-.85-.46-1.26-.61,1.01-3.33,2.33-5.12,3.93-5.32,3.09-.39,6.4,5.09,6.46,5.2h0s.35-.02.35-.02c1.24-.06,2.05-.58,2.54-1.04.03,2.36-2.38,3.79-2.49,3.86l-.65.38.69.29c1.6.68,2.92.15,3.69-.35-.28,1.54-1.09,2.76-2.41,3.63-1.19.78-2.38.98-2.39.99l-.56.09.3.48c.34.55.36,1.25.34,1.68Z"/>
    <path class="cls-2" d="M26.66,578.02c.43-1.39.3-2.31.29-2.35l-.02-.12-2.84-2.99-.26.18c-1.03.72-2.42,2.88-2.48,2.97l-.24.37,5.41,2.33.12-.4ZM26.06,577.4l-3.83-1.64c.38-.56,1.14-1.63,1.78-2.19l2.21,2.33c.01.22.02.76-.16,1.51Z"/>
    <path class="cls-2" d="M38.35,572.75l-.26-.18-2.84,2.99-.02.12s-.14.95.29,2.35l.12.4,5.41-2.33-.24-.37c-.06-.09-1.44-2.25-2.48-2.97ZM36.13,577.4c-.18-.75-.18-1.29-.16-1.51l2.21-2.33c.64.57,1.4,1.63,1.78,2.19l-3.83,1.64Z"/>
    <path class="cls-2" d="M25.86,567.65l.77.2-.34-.72c-.04-.08-.91-1.94-2.3-3.23l-.47-.44-.15.62c-.03.13-.77,3.22-.95,4.64l-.19,1.41.85-1.14s1.31-1.72,2.77-1.34ZM23.95,564.92c.6.67,1.07,1.42,1.35,1.93-.77.04-1.45.43-1.94.82.18-.95.43-2.06.59-2.75Z"/>
    <path class="cls-2" d="M40.6,569.41l.73.76-.09-1.05c-.23-2.55-1.12-4.49-1.16-4.57l-.22-.47-.38.36c-1.2,1.15-2.24,3.32-2.29,3.41l-.26.54h.6c1.99-.04,3.01.98,3.06,1.02ZM39.62,565.39c.23.6.58,1.67.77,2.96-.5-.29-1.26-.61-2.26-.69.31-.58.86-1.54,1.48-2.27Z"/>
    <path class="cls-2" d="M22.89,593.18c0-2.44-2.18-5.87-4.62-6.24-1.61-.25-2.86-.16-3.68.23l-14.31-17.06-.17.73c-.02.08-.43,1.92.47,5.06.82,2.86,2.93,7.4,8.36,12.83l.22.22,1.85-1.31,1.79,2.21c-.13.12-.27.25-.41.39-.64.64-1.32,1.45-.92,2.04.24.34.73.45,1.27.45.09,0,.18,0,.27,0-.87.61-1.78,1.46-1.47,2.22.08.21.3.49.86.59.15.03.33.04.52.04.11,0,.22,0,.34-.01-.38.57-.7,1.34-.23,1.94.14.18.36.27.66.27.06,0,.11,0,.17,0,.27-.03.63-.13,1.03-.29-.09.37-.11.78.1,1.09.2.29.53.44.99.44.14,0,.3-.01.47-.04.83-.14,1.77-.61,2.66-1.32l1.3,1.61.23-.05c.08-.02,1.85-.45,2.14-2.04l.03-.17-1.2-1.43c.82-.43,1.27-1.26,1.27-2.38ZM11.15,586.63l-1.91,1.35c-5.12-5.19-7.14-9.5-7.93-12.22-.52-1.78-.59-3.12-.56-3.92l13.22,15.77s0,0,0,0c-.39.4-.53.93-.41,1.51,0,.02,0,.04.01.06-.05.04-.12.1-.22.18l-2.21-2.73ZM12.1,591.87c0-.27.74-1.1,1.64-1.86.11.54.23,1.19.35,1.79-.92.22-1.82.26-1.99.07ZM12.54,594.8c-.22-.04-.3-.11-.31-.14-.12-.31.85-1.18,2.06-1.86.12.64.21,1.09.21,1.1l.09.47.43-.2c.95-.44,1.56-1.17,1.8-2.15l1.05-.48c.18.2.4.39.65.54-2.09,2.09-4.83,2.93-5.98,2.71ZM16.94,590.83c-.01-.32-.05-.63-.1-.91h.18c.07.3.2.66.41,1.01l-.48.22c0-.11,0-.21,0-.32ZM13.61,597.03c-.26-.4.38-1.26.77-1.66.99-.26,2.14-.76,3.27-1.57.64-.26,1.32-.23,1.77-.17-.51.58-1.54,1.38-2.74,2.11-1.68,1.02-2.8,1.37-3.07,1.29ZM16.34,598.23c-.45.07-.67,0-.72-.08-.12-.18.03-.7.26-1.12.9-.45,1.89-1.06,2.72-1.69.8-.43,1.57-.61,2.05-.68-.5,1.26-2.55,3.28-4.3,3.56ZM22.02,597.19c-.22.73-.95,1.08-1.32,1.21l-1.01-1.25s.07-.07.11-.11c.36-.35.73-.78,1.04-1.22.01,0,.02,0,.04,0l1.15,1.37ZM21.37,594.85c.07-.2.12-.4.13-.58l.03-.41h-.41s-.44.02-1.05.16c.14-.17.24-.32.31-.47l.18-.38-.4-.13s-.6-.19-1.34-.19c.14-.13.28-.27.42-.42.21.07.43.11.67.14l.08-.74c-2.02-.22-2.29-2.25-2.3-2.34l-.04-.35-1,.04c-.09-.29-.17-.48-.17-.49l-.69.29c.05.13,1.23,2.97-.66,4.28-.2-1.02-.64-3.32-.84-4.29-.07-.34,0-.63.22-.85.53-.56,1.86-.72,3.64-.44,2.01.31,3.98,3.41,3.99,5.51,0,.79-.26,1.35-.78,1.67Z"/>
    <path class="cls-2" d="M58.62,571.72l-3.11,5.66-.21-.09,2.34-7.44-.69-.28-3.62,6.92-.43-.18,2-6.33-.68-.29-4.33,7.95c-.16.28-.09.65.16.85l1.47,1.18-2.82,7.56c-.91-.11-2.12.23-3.56,1-2.18,1.17-3.09,5.12-2.28,7.42.37,1.06,1.09,1.7,2.02,1.82l-.7,1.87v.25c.14.45.7,1.15,1.85,1.15.26,0,.56-.04.88-.12l.26-.23.67-1.81c.81.29,1.6.44,2.3.44.25,0,.48-.02.71-.06.75-.13,1.19-.42,1.29-.87.09-.38-.1-.76-.33-1.06.1,0,.21,0,.3,0,.31,0,.58-.02.79-.07.38-.09.61-.27.69-.53.24-.73-.32-1.34-.86-1.76.33-.09.6-.19.81-.32.49-.29.61-.62.61-.85.03-.82-1.11-1.32-2.13-1.6.61-.17,1.18-.46,1.3-.93.19-.69-.73-1.23-1.55-1.62-.16-.07-.31-.14-.46-.21l3.03-8.21,1.94.06c.31.01.58-.19.66-.49l2.35-8.53-.69-.28ZM43.58,595.4c-.69-1.97.13-5.56,1.93-6.52,1.59-.85,2.9-1.14,3.58-.79.28.14.44.39.49.73.14.98.48,3.29.63,4.32-2.21-.6-2.05-3.67-2.04-3.81l-.37-.02-.37-.02s-.01.22,0,.52l-.96.29.08.34c.02.08.45,2.08-1.39,2.97l.32.67c.22-.11.42-.23.59-.36.18.09.36.18.54.26-.7.25-1.17.6-1.2.63l-.34.26.3.3c.11.11.27.23.45.34-.62.07-1.01.2-1.04.21l-.39.13.16.38c.07.17.18.34.32.5-.59-.13-1.02-.57-1.29-1.31ZM47.33,590.61l.17-.05c.04.28.11.58.2.89.03.1.07.21.11.3l-.53-.05c.07-.4.08-.78.04-1.1ZM46.55,599.94c-1.07.22-1.48-.26-1.61-.48l.74-2s0,0,0,0c.44.32.93.59,1.38.8.03.01.05.02.08.04l-.61,1.64ZM51.43,597.92c-.02.07-.18.22-.7.31-1.74.31-4.34-.91-5.24-1.93.48-.09,1.26-.17,2.16-.04,1.02.32,2.2.57,3.23.7l-.08.11c.34.26.68.68.63.85ZM52.9,596.2c-.22.16-1.4.2-3.32-.2-1.37-.29-2.61-.7-3.28-1.07.4-.21,1.04-.46,1.72-.43,1.03.3,2.02.42,2.88.42.25,0,.49-.01.72-.03.51.25,1.39.85,1.28,1.31ZM53.42,593.5s-.05.12-.25.23c-1.01.59-3.87.71-6.54-.57.18-.23.33-.48.43-.73l1.14.1c.55.84,1.37,1.33,2.41,1.43l.47.05-.07-.47s-.07-.47-.17-1.11c1.36.25,2.57.75,2.56,1.07ZM52.61,590.82c-.1.23-.96.49-1.9.59-.09-.61-.19-1.26-.26-1.81,1.1.42,2.07.95,2.17,1.21ZM56.26,580.27l-1.93-.06c-.29,0-.55.17-.64.43l-3.05,8.24c-.14-.05-.25-.09-.31-.11,0-.02,0-.04,0-.06-.08-.59-.39-1.04-.88-1.29l2.82-7.56c.1-.27.02-.57-.21-.75l-1.47-1.18,2.47-4.52-.92,2.9c-.08.23.04.48.26.57l.9.38c.22.09.48,0,.59-.21l1.79-3.43-1.16,3.67c-.07.23.04.47.26.56l.68.3c.22.1.47.01.59-.2l1.71-3.11-1.49,5.42Z"/>
  </g>
</svg>
